<?xml version="1.0" encoding="UTF-8" standalone="no"?>
<!DOCTYPE svg PUBLIC "-//W3C//DTD SVG 1.1//EN" "http://www.w3.org/Graphics/SVG/1.1/DTD/svg11.dtd">
<svg xmlns="http://www.w3.org/2000/svg" version="1.1" viewBox="0.00 0.00 1024.00 1024.00">
<path fill="#ea0a8e" d="
  M 822.91 211.69
  C 818.43 207.77 813.35 201.24 815.94 195.12
  Q 817.66 191.04 821.02 187.72
  Q 835.78 173.13 850.84 157.98
  C 856.24 152.54 862.25 148.09 867.60 142.85
  Q 879.17 131.50 890.05 120.55
  C 895.22 115.35 900.99 110.97 906.07 106.00
  Q 912.40 99.80 918.74 93.81
  C 922.67 90.10 928.14 87.12 933.60 88.30
  Q 936.55 88.93 939.08 89.85
  C 943.91 91.61 946.32 97.90 947.57 102.42
  C 948.89 107.22 944.19 112.96 940.92 116.20
  Q 923.90 133.02 908.30 148.78
  Q 906.18 150.91 903.97 152.45
  C 900.15 155.09 897.63 157.51 894.69 160.47
  Q 882.03 173.25 868.47 186.76
  Q 863.16 192.04 856.02 198.16
  Q 849.34 203.88 843.64 209.62
  C 838.86 214.41 828.76 216.81 822.91 211.69
  Z"
/>
<path fill="#ea0a8e" d="
  M 511.02 150.08
  C 507.22 148.18 501.92 147.89 497.73 147.70
  Q 491.63 147.43 490.50 141.36
  Q 489.83 137.72 493.31 136.95
  Q 501.41 135.16 509.47 133.51
  Q 512.44 132.90 512.88 129.99
  C 513.76 124.29 514.75 116.18 519.78 112.29
  A 1.49 1.47 -50.4 0 1 521.37 112.13
  C 523.61 113.26 525.20 115.49 525.82 117.87
  Q 527.44 124.02 528.90 129.86
  Q 529.58 132.60 532.25 133.51
  Q 536.62 135.01 540.26 135.26
  C 543.09 135.45 546.52 135.32 548.77 137.19
  C 552.58 140.35 552.91 146.31 546.68 147.17
  Q 539.44 148.16 532.59 149.64
  Q 529.12 150.39 528.59 154.05
  Q 527.95 158.53 526.82 163.19
  C 526.01 166.52 523.36 171.53 519.72 171.24
  C 517.28 171.05 515.90 168.34 515.38 166.16
  C 514.45 162.31 513.45 158.48 512.75 154.59
  Q 512.42 152.75 511.67 150.80
  Q 511.49 150.31 511.02 150.08
  Z"
/>
<path fill="#ea0a8e" d="
  M 702.90 201.63
  C 701.72 194.75 711.37 186.38 715.83 182.03
  Q 728.04 170.14 740.05 158.05
  C 744.74 153.33 750.03 148.67 755.70 144.84
  C 761.14 141.16 766.34 141.96 771.61 144.82
  C 775.70 147.05 777.83 151.93 779.35 156.27
  C 781.01 161.03 777.20 167.38 773.78 170.67
  C 769.28 175.02 764.06 178.73 759.68 183.12
  Q 746.54 196.27 733.87 208.74
  C 729.27 213.27 723.82 216.76 717.25 215.99
  C 709.06 215.03 704.20 209.29 702.90 201.63
  Z"
/>
<path fill="#ea0a8e" d="
  M 392.07 274.46
  Q 386.45 290.34 381.48 308.43
  Q 381.22 309.39 380.60 310.16
  Q 379.50 311.52 378.93 309.86
  Q 373.20 293.11 368.01 276.94
  Q 366.50 272.24 364.46 268.07
  C 362.08 263.18 351.24 259.65 346.61 258.38
  C 335.61 255.35 327.05 253.05 318.06 248.92
  Q 314.98 247.50 318.25 246.57
  Q 333.36 242.27 347.88 237.58
  C 351.45 236.43 355.01 234.99 358.37 233.32
  C 363.13 230.95 365.88 224.64 367.54 219.86
  Q 372.28 206.21 378.79 185.52
  Q 378.96 184.97 379.36 185.38
  Q 380.47 186.53 381.04 188.10
  Q 386.35 202.84 388.73 210.86
  Q 391.55 220.36 395.07 228.36
  Q 396.93 232.58 401.22 234.27
  C 408.30 237.07 416.19 238.80 423.58 241.21
  Q 432.85 244.22 441.61 247.38
  Q 443.88 248.21 441.60 249.00
  Q 427.50 253.91 411.62 258.45
  C 408.29 259.41 404.98 260.68 401.83 262.07
  C 396.94 264.21 393.79 269.58 392.07 274.46
  Z"
/>
<path fill="#ea0a8e" d="
  M 889.21 207.62
  C 893.32 205.18 896.71 205.52 901.00 206.87
  Q 911.02 210.01 912.20 220.42
  Q 912.85 226.17 909.08 229.98
  Q 893.85 245.37 880.05 258.97
  C 877.72 261.27 874.60 262.81 872.23 265.18
  C 857.32 280.07 842.10 295.78 825.97 310.36
  Q 818.18 317.40 811.59 324.00
  Q 792.19 343.42 773.80 361.71
  C 771.01 364.48 767.49 366.52 764.74 369.19
  Q 753.00 380.60 741.61 392.36
  Q 735.74 398.43 729.43 402.09
  C 726.65 403.71 723.03 403.85 719.89 403.08
  Q 709.13 400.41 706.69 388.78
  C 705.32 382.19 715.79 371.20 720.31 367.18
  C 726.35 361.82 732.58 356.66 738.35 350.85
  Q 752.46 336.63 766.67 322.52
  C 771.09 318.12 776.30 314.38 780.70 310.10
  Q 792.78 298.34 806.02 284.88
  Q 809.99 280.85 814.07 277.52
  Q 819.47 273.12 822.08 270.56
  C 832.64 260.20 843.00 249.21 854.25 239.21
  Q 866.13 228.65 878.43 215.95
  Q 882.83 211.40 889.21 207.62
  Z"
/>
<path fill="#ea0a8e" d="
  M 142.33 232.45
  C 142.67 225.62 144.26 218.59 147.38 213.37
  Q 148.86 210.89 151.08 212.67
  C 155.23 216.02 156.52 220.88 157.17 226.11
  Q 157.34 227.47 157.76 228.75
  C 158.57 231.20 158.47 232.82 161.47 233.49
  Q 167.39 234.81 173.73 235.62
  C 180.53 236.49 183.37 246.66 174.93 247.25
  Q 168.38 247.71 161.17 249.25
  Q 159.21 249.67 158.80 251.63
  Q 157.38 258.32 155.77 265.50
  C 154.76 270.00 149.55 274.40 146.46 268.22
  C 143.88 263.08 142.82 258.12 142.02 252.52
  C 141.79 250.93 140.60 250.11 139.18 249.68
  Q 133.51 247.93 127.75 247.78
  C 123.80 247.68 120.91 246.64 119.37 242.53
  C 118.23 239.52 121.37 237.52 123.71 236.67
  Q 133.11 233.28 141.39 233.34
  Q 142.29 233.35 142.33 232.45
  Z"
/>
<path fill="#ea0a8e" d="
  M 696.35 277.41
  C 699.85 274.39 707.00 268.14 711.42 269.18
  Q 719.25 271.01 722.66 275.36
  Q 730.64 285.57 722.69 295.99
  C 719.13 300.65 714.91 304.98 710.25 308.74
  Q 703.23 314.41 696.29 321.39
  Q 662.88 355.00 638.35 379.30
  Q 625.90 391.64 612.06 403.32
  C 608.99 405.91 604.71 407.83 600.63 406.78
  C 591.08 404.34 584.60 395.45 587.06 385.60
  C 587.55 383.64 589.09 382.17 590.49 380.77
  Q 613.89 357.43 636.46 335.01
  Q 637.78 333.70 639.62 332.40
  Q 643.33 329.77 646.82 326.29
  Q 667.40 305.75 687.51 285.61
  Q 691.59 281.52 696.35 277.41
  Z"
/>
<path fill="#ea0a8e" d="
  M 366.65 513.69
  C 357.92 512.60 353.31 508.55 350.57 500.51
  C 347.37 491.12 362.23 478.41 368.26 473.00
  Q 388.55 454.84 406.19 436.62
  C 409.17 433.55 412.53 430.61 416.05 427.71
  Q 420.66 423.89 425.54 419.05
  C 437.42 407.25 446.87 397.11 458.13 386.85
  Q 474.10 372.29 489.84 356.64
  C 495.90 350.61 502.90 345.51 509.04 339.19
  Q 515.00 333.07 522.10 326.01
  Q 525.36 322.77 536.89 312.55
  C 545.09 305.29 552.69 296.61 561.14 289.15
  C 563.88 286.71 567.73 284.30 571.59 285.10
  Q 585.33 287.96 587.36 300.40
  C 588.37 306.61 585.03 309.62 581.12 313.55
  Q 563.50 331.26 546.14 347.26
  Q 533.81 358.65 517.19 375.56
  C 513.47 379.34 509.21 382.52 505.61 386.49
  C 503.86 388.42 501.43 389.65 499.57 391.50
  Q 484.03 406.88 469.25 421.80
  Q 462.18 428.93 455.15 435.35
  C 448.76 441.18 442.43 446.67 436.41 452.74
  Q 423.66 465.57 411.22 477.95
  C 408.37 480.78 404.96 482.54 402.14 485.33
  Q 392.27 495.11 381.67 505.72
  C 378.40 509.00 371.45 514.29 366.65 513.69
  Z"
/>
<path fill="#ea0a8e" d="
  M 243.35 354.57
  C 245.36 354.89 247.38 354.76 249.42 355.11
  C 253.30 355.79 267.91 357.81 265.48 364.20
  Q 264.26 367.38 261.17 368.46
  Q 253.65 371.08 245.36 371.31
  Q 244.90 371.32 244.64 371.70
  Q 243.08 374.02 242.76 376.76
  C 242.17 381.80 240.88 389.12 236.63 392.01
  Q 235.27 392.93 233.86 391.83
  Q 229.36 388.31 228.31 381.92
  Q 227.43 376.48 226.09 371.85
  Q 225.94 371.34 225.40 371.31
  Q 217.24 370.83 208.03 368.60
  C 205.46 367.97 204.04 364.64 203.34 362.35
  C 202.00 357.94 216.44 356.55 219.09 356.44
  C 222.78 356.28 227.63 355.15 227.92 350.60
  C 228.30 344.74 229.00 335.44 235.87 333.89
  A 1.30 1.29 62.9 0 1 237.13 334.30
  Q 238.59 335.98 239.38 338.18
  Q 242.14 345.88 242.70 353.87
  Q 242.75 354.48 243.35 354.57
  Z"
/>
<path fill="#ea0a8e" d="
  M 858.71 401.10
  C 865.73 403.23 868.71 407.77 870.74 414.31
  C 872.40 419.65 866.19 427.72 862.53 431.21
  C 857.22 436.27 851.55 441.00 846.33 446.29
  Q 836.61 456.15 826.70 465.80
  C 823.01 469.41 817.09 474.06 811.69 472.88
  Q 799.96 470.30 797.74 457.98
  Q 796.68 452.16 800.87 447.43
  Q 807.76 439.62 814.64 433.89
  C 824.70 425.52 833.40 416.51 842.45 407.35
  C 846.59 403.16 852.96 399.37 858.71 401.10
  Z"
/>
<path fill="#ea0a8e" d="
  M 556.32 423.94
  C 558.65 430.29 553.63 438.76 549.48 443.21
  Q 544.22 448.85 536.62 456.07
  C 533.30 459.23 529.50 461.49 526.30 464.67
  Q 502.35 488.55 479.89 511.06
  C 473.24 517.72 465.85 523.94 458.93 530.56
  Q 452.68 536.53 447.08 542.17
  C 443.10 546.18 437.91 549.96 432.47 551.29
  C 424.86 553.15 415.24 542.95 414.33 536.30
  C 413.65 531.34 418.38 524.47 421.79 520.94
  Q 435.59 506.64 442.00 501.36
  Q 448.08 496.35 452.94 491.54
  Q 470.92 473.75 488.67 455.86
  Q 495.46 449.02 503.57 441.66
  Q 516.43 429.98 529.15 417.19
  Q 531.54 414.80 535.27 413.00
  C 544.20 408.68 553.33 415.77 556.32 423.94
  Z"
/>
<path fill="#ea0a8e" d="
  M 84.34 453.39
  Q 74.18 452.70 66.87 450.65
  C 63.51 449.70 60.17 445.02 63.43 441.91
  Q 64.52 440.88 68.02 440.10
  Q 74.39 438.68 81.15 437.76
  Q 82.60 437.56 84.37 436.58
  Q 84.86 436.31 84.92 435.76
  Q 86.16 425.99 90.30 416.85
  A 2.35 2.34 -66.5 0 1 93.33 415.65
  Q 96.47 416.94 97.67 420.13
  Q 100.19 426.84 101.45 434.51
  C 102.63 441.70 117.60 436.22 121.99 442.64
  C 123.68 445.10 123.42 450.53 119.57 451.03
  Q 115.31 451.59 110.58 452.53
  C 107.84 453.07 105.20 452.91 102.46 453.17
  Q 101.86 453.23 101.76 453.82
  Q 100.56 460.98 98.84 468.45
  Q 98.13 471.49 96.18 473.47
  C 93.18 476.51 89.58 473.33 88.54 470.21
  Q 85.84 462.12 85.06 454.08
  Q 85.00 453.43 84.34 453.39
  Z"
/>
<path fill="#ea0a8e" d="
  M 475.00 601.66
  C 468.10 598.23 463.19 588.63 466.73 580.94
  Q 469.39 575.16 472.99 571.52
  C 484.36 560.01 495.95 547.86 508.18 537.00
  Q 522.68 524.12 536.72 509.51
  Q 541.90 504.11 547.18 499.69
  C 557.90 490.69 567.36 480.81 577.47 470.75
  C 581.25 466.99 586.11 463.73 590.05 459.78
  Q 602.00 447.85 615.54 434.43
  Q 618.23 431.78 622.28 428.49
  C 628.16 423.73 632.22 420.63 639.35 420.33
  Q 645.57 420.07 649.48 425.24
  C 653.30 430.31 655.76 439.72 650.98 445.03
  Q 642.04 454.96 634.27 461.68
  Q 624.10 470.47 621.17 473.35
  C 609.51 484.80 598.49 496.83 586.26 507.47
  Q 582.31 510.91 577.92 515.14
  C 562.32 530.15 547.12 545.45 532.23 560.43
  C 529.74 562.93 526.47 564.44 523.97 566.94
  Q 509.12 581.80 492.45 598.42
  Q 484.48 606.37 475.00 601.66
  Z"
/>
<path fill="#ea0a8e" d="
  M 954.32 483.08
  C 960.08 483.48 967.04 484.16 971.79 485.96
  Q 975.28 487.28 974.33 491.54
  Q 972.87 498.08 966.22 497.72
  Q 961.41 497.46 957.06 497.80
  Q 953.23 498.09 952.23 502.91
  Q 950.94 509.07 949.30 515.09
  C 948.73 517.17 946.41 521.48 943.71 520.09
  C 941.79 519.09 939.90 518.64 939.22 516.27
  Q 937.74 511.12 936.62 503.76
  C 936.07 500.14 933.67 497.69 929.91 497.78
  Q 921.36 497.98 914.57 495.52
  Q 914.10 495.35 913.95 494.88
  C 913.16 492.35 912.98 487.68 915.70 486.10
  C 917.83 484.87 920.36 484.45 922.74 483.91
  C 926.09 483.14 929.66 483.55 933.06 483.32
  A 2.84 2.83 -85.1 0 0 935.62 481.16
  Q 937.12 474.92 938.30 467.76
  Q 938.79 464.75 939.97 463.37
  C 942.09 460.85 948.04 461.01 948.94 465.19
  Q 950.42 472.07 952.11 478.62
  Q 952.60 480.54 953.40 482.43
  Q 953.66 483.04 954.32 483.08
  Z"
/>
<path fill="#ea0a8e" d="
  M 498.09 646.97
  C 500.51 642.07 503.87 638.86 507.73 634.94
  Q 520.13 622.37 532.79 610.05
  Q 534.95 607.95 543.04 600.83
  Q 547.88 596.56 552.69 591.78
  Q 568.65 575.90 582.74 561.66
  Q 589.19 555.15 597.26 548.03
  Q 610.44 536.42 624.42 521.78
  C 629.54 516.42 635.19 512.07 640.50 507.18
  Q 644.90 503.13 648.99 499.21
  C 651.22 497.07 654.17 494.84 657.17 494.11
  C 660.69 493.25 667.33 497.59 670.20 499.62
  Q 674.51 502.66 674.89 507.85
  C 675.16 511.54 675.21 517.45 672.48 520.17
  Q 649.56 543.10 630.81 561.86
  C 627.96 564.71 624.43 566.40 621.60 569.24
  Q 592.21 598.73 561.84 628.97
  Q 560.46 630.34 558.68 631.66
  Q 554.11 635.07 549.79 639.36
  Q 537.39 651.69 524.02 665.13
  C 520.63 668.54 513.44 672.70 508.47 670.15
  Q 497.40 664.45 496.43 654.00
  Q 496.14 650.92 498.09 646.97
  Z"
/>
<path fill="#ea0a8e" d="
  M 652.14 627.95
  C 646.56 626.26 640.38 624.15 638.92 617.67
  Q 636.36 606.32 644.06 598.50
  Q 654.20 588.21 663.47 579.33
  C 667.46 575.52 672.00 572.31 675.97 568.37
  Q 689.27 555.21 703.45 540.91
  C 709.47 534.84 715.42 529.71 721.60 524.17
  C 727.53 518.85 732.98 512.90 738.72 507.73
  C 745.63 501.50 752.21 498.63 760.85 502.28
  C 765.40 504.21 768.09 510.83 769.21 515.27
  C 770.17 519.10 766.79 524.05 764.28 526.57
  Q 744.10 546.75 724.07 566.81
  C 714.74 576.15 704.29 584.66 694.92 594.14
  Q 680.24 608.98 668.08 620.95
  C 665.02 623.96 657.14 629.45 652.14 627.95
  Z"
/>
<path fill="#ea0a8e" d="
  M 198.71 550.40
  Q 214.87 543.62 233.76 539.86
  Q 242.77 538.07 253.27 537.34
  Q 275.74 535.78 297.75 538.10
  Q 310.36 539.43 321.76 542.68
  C 329.59 544.91 337.48 547.09 345.13 550.37
  C 366.01 559.31 384.34 569.33 399.83 583.18
  C 411.45 593.56 423.37 605.56 432.23 619.01
  C 438.17 628.03 443.81 637.18 448.12 647.23
  Q 457.87 669.98 462.85 693.90
  Q 464.79 703.20 465.47 713.42
  C 466.19 724.26 465.52 734.95 464.94 745.73
  Q 464.64 751.30 463.61 757.91
  C 461.50 771.41 457.72 783.95 453.22 796.67
  Q 446.20 816.51 434.48 833.72
  C 430.13 840.12 425.64 846.35 420.47 852.08
  C 410.36 863.29 399.90 874.07 387.69 882.88
  Q 351.93 908.68 308.15 916.77
  Q 301.33 918.03 294.25 918.29
  C 287.96 918.53 281.52 919.34 275.07 919.30
  Q 253.88 919.17 240.39 917.45
  Q 209.94 913.56 179.59 896.99
  Q 158.83 885.65 142.11 870.93
  Q 134.00 863.80 127.82 856.53
  Q 106.48 831.43 94.43 804.48
  Q 85.36 784.19 81.01 760.84
  Q 79.46 752.53 78.78 742.49
  Q 77.85 728.85 78.13 724.24
  Q 78.66 715.51 79.13 706.69
  C 79.38 702.04 80.35 697.49 80.99 692.90
  Q 83.04 678.35 88.30 664.44
  C 96.24 643.48 106.97 623.10 121.03 606.54
  C 131.17 594.61 143.71 582.04 157.23 572.78
  Q 176.03 559.91 198.71 550.40
  Z
  M 253.10 570.25
  Q 253.06 573.24 253.02 576.41
  C 252.98 580.09 256.43 583.23 259.87 583.51
  Q 266.76 584.06 271.09 580.64
  A 4.08 4.03 80.2 0 0 272.41 578.74
  L 274.29 573.00
  Q 274.45 572.53 274.27 572.06
  Q 272.01 566.14 267.28 562.88
  C 264.77 561.15 260.20 561.31 257.73 563.53
  C 255.82 565.25 253.13 567.52 253.10 570.25
  Z
  M 311.1143 591.4491
  A 13.04 12.68 78.3 0 0 320.8865 576.1087
  A 13.04 12.68 78.3 0 0 305.8257 565.9109
  A 13.04 12.68 78.3 0 0 296.0535 581.2513
  A 13.04 12.68 78.3 0 0 311.1143 591.4491
  Z
  M 225.22 588.82
  C 230.28 589.12 232.11 580.95 231.88 577.29
  Q 231.73 574.87 229.73 573.13
  C 227.82 571.46 222.87 568.01 220.27 569.47
  C 217.84 570.82 214.19 574.11 213.90 577.09
  C 213.44 581.73 213.27 584.69 217.26 587.80
  C 219.41 589.47 222.62 588.66 225.22 588.82
  Z
  M 365.08 584.78
  Q 352.36 580.21 344.43 589.22
  C 339.60 594.70 339.07 603.51 342.23 609.97
  Q 345.31 616.26 351.98 618.46
  Q 361.49 621.61 369.23 614.86
  C 375.05 609.78 378.28 603.74 375.36 595.71
  C 373.28 590.00 370.66 586.79 365.08 584.78
  Z
  M 425.18 643.87
  Q 423.47 636.88 420.12 633.37
  Q 416.54 629.61 410.67 627.32
  C 402.02 623.93 393.84 627.18 388.54 634.67
  C 384.19 640.83 384.50 648.04 386.14 655.29
  Q 387.25 660.18 391.67 664.30
  Q 398.99 671.11 409.26 669.05
  C 416.47 667.60 422.62 660.86 424.50 653.96
  C 425.45 650.44 426.09 647.61 425.18 643.87
  Z
  M 425.7383 711.8377
  A 12.59 12.38 91.1 0 0 438.3577 699.4877
  A 12.59 12.38 91.1 0 0 426.2217 686.6623
  A 12.59 12.38 91.1 0 0 413.6023 699.0123
  A 12.59 12.38 91.1 0 0 425.7383 711.8377
  Z
  M 431.9445 761.2910
  A 13.17 12.69 72.8 0 0 440.1725 744.9575
  A 13.17 12.69 72.8 0 0 424.1555 736.1290
  A 13.17 12.69 72.8 0 0 415.9275 752.4625
  A 13.17 12.69 72.8 0 0 431.9445 761.2910
  Z
  M 428.22 799.38
  A 14.68 14.68 0.0 0 0 413.54 784.70
  A 14.68 14.68 0.0 0 0 398.86 799.38
  A 14.68 14.68 0.0 0 0 413.54 814.06
  A 14.68 14.68 0.0 0 0 428.22 799.38
  Z
  M 383.1463 856.5375
  A 14.24 13.69 87.6 0 0 396.2280 841.7367
  A 14.24 13.69 87.6 0 0 381.9537 828.0825
  A 14.24 13.69 87.6 0 0 368.8720 842.8833
  A 14.24 13.69 87.6 0 0 383.1463 856.5375
  Z
  M 334.12 868.13
  Q 335.57 876.98 343.56 879.43
  C 345.65 880.07 347.36 879.31 348.92 877.97
  C 352.23 875.12 354.90 870.65 353.51 866.12
  Q 351.13 858.35 343.24 858.19
  C 338.93 858.09 336.66 860.65 334.80 864.19
  Q 333.79 866.12 334.12 868.13
  Z
  M 297.20 887.03
  C 299.52 891.47 303.58 895.44 309.04 893.09
  Q 315.79 890.18 316.43 882.99
  C 316.59 881.23 315.91 879.10 315.27 877.47
  C 313.33 872.53 309.51 872.25 304.94 872.51
  C 302.19 872.67 300.36 874.06 298.58 875.98
  Q 294.00 880.89 297.20 887.03
  Z"
/>
<path fill="#ea0a8e" d="
  M 872.35 666.81
  A 1.40 1.40 0.0 0 0 870.97 665.66
  Q 860.80 665.63 851.51 662.24
  C 847.90 660.93 849.15 655.79 851.30 653.99
  Q 853.02 652.54 855.74 651.99
  C 860.87 650.96 865.51 650.56 871.04 649.26
  Q 871.57 649.13 871.90 648.71
  Q 872.90 647.44 873.12 645.82
  Q 874.41 636.01 878.42 628.84
  A 1.82 1.81 -63.8 0 1 880.72 628.05
  C 886.44 630.50 888.22 640.28 889.58 645.74
  C 890.25 648.38 891.65 650.98 894.54 651.15
  Q 898.50 651.39 902.35 651.23
  C 907.30 651.02 910.37 653.11 912.96 657.05
  Q 913.24 657.49 913.09 657.98
  Q 911.86 662.05 908.77 663.35
  Q 903.71 665.49 898.65 665.51
  C 895.00 665.53 890.19 664.34 889.38 669.51
  Q 888.57 674.73 887.11 680.14
  C 886.11 683.81 882.29 691.91 877.70 686.79
  Q 876.19 685.10 875.68 682.87
  Q 873.82 674.83 872.35 666.81
  Z"
/>
<path fill="#ea0a8e" d="
  M 604.29 648.36
  Q 609.97 650.70 612.28 655.12
  C 616.96 664.06 611.56 670.60 605.42 676.67
  Q 591.15 690.76 573.96 707.94
  C 566.57 715.32 558.33 721.91 550.95 729.31
  Q 543.01 737.29 535.69 744.29
  Q 531.40 748.39 525.56 749.39
  C 522.11 749.98 515.61 746.31 513.59 744.40
  Q 511.54 742.47 509.75 738.45
  C 506.22 730.49 511.09 724.11 516.66 718.68
  Q 527.14 708.44 535.76 699.86
  Q 539.91 695.73 546.23 690.44
  Q 551.18 686.29 556.57 680.84
  Q 567.42 669.87 577.76 659.44
  C 581.41 655.75 585.53 652.16 589.93 649.28
  Q 593.78 646.76 597.15 646.29
  C 599.31 645.99 602.27 647.53 604.29 648.36
  Z"
/>
<path fill="#ea0a8e" d="
  M 650.26 813.82
  C 648.28 809.14 643.95 806.97 639.37 805.49
  C 627.72 801.73 615.45 798.80 604.18 793.98
  Q 601.71 792.93 604.18 791.87
  Q 609.23 789.70 614.50 788.07
  Q 625.72 784.60 636.96 781.32
  C 639.72 780.51 642.39 779.30 645.07 778.24
  C 646.91 777.51 648.15 776.18 649.02 774.40
  Q 651.19 769.99 652.59 765.75
  Q 658.20 748.77 664.43 731.76
  Q 664.66 731.14 665.07 731.66
  Q 666.22 733.10 666.84 734.81
  Q 672.23 749.77 676.50 763.57
  Q 678.48 769.99 681.63 775.13
  C 683.94 778.91 689.47 780.13 693.48 781.27
  Q 708.69 785.58 725.22 791.09
  Q 726.79 791.62 728.32 792.50
  Q 728.80 792.77 728.32 793.06
  Q 726.51 794.15 724.65 794.76
  Q 710.10 799.56 695.22 803.93
  C 691.95 804.89 688.72 806.28 685.71 807.86
  C 681.76 809.94 679.20 814.89 677.61 819.28
  Q 673.24 831.33 671.32 838.30
  Q 669.14 846.19 666.41 854.42
  Q 666.04 855.56 665.19 856.57
  Q 664.79 857.05 664.58 856.46
  C 663.44 853.17 662.15 849.95 661.25 846.61
  Q 656.20 827.87 650.26 813.82
  Z"
/>
<path fill="#ea0a8e" d="
  M 853.32 860.53
  Q 853.65 861.55 854.73 861.61
  Q 863.55 862.08 870.10 864.58
  C 873.34 865.82 876.63 870.51 872.71 873.37
  Q 868.95 876.13 864.10 876.12
  Q 859.46 876.11 854.86 876.11
  Q 853.50 876.11 853.29 877.45
  Q 851.94 885.92 849.17 894.17
  Q 847.61 898.80 842.86 897.75
  C 840.16 897.15 839.59 894.40 838.89 892.20
  Q 836.73 885.39 836.60 878.90
  A 2.31 2.30 8.0 0 0 834.97 876.74
  Q 833.27 876.23 831.48 876.29
  Q 823.62 876.54 816.25 873.88
  C 814.11 873.11 813.53 871.01 813.51 868.96
  Q 813.46 864.64 817.37 863.94
  Q 826.84 862.23 836.03 861.62
  A 0.70 0.70 0.0 0 0 836.69 860.89
  Q 836.57 856.92 837.16 852.84
  C 837.74 848.84 840.32 836.05 846.46 841.02
  Q 848.22 842.44 849.43 845.94
  C 851.13 850.85 851.75 855.71 853.32 860.53
  Z"
/>
<path fill="#ea0a8e" d="
  M 528.34 929.76
  C 528.63 932.48 530.36 933.22 532.84 933.24
  C 537.42 933.30 545.61 933.53 548.95 935.87
  Q 549.39 936.18 549.45 936.72
  Q 549.80 939.84 549.36 942.42
  C 548.82 945.52 546.24 945.38 543.85 946.02
  Q 538.15 947.55 531.84 947.75
  C 530.23 947.79 528.57 948.94 528.40 950.65
  C 527.90 955.97 526.79 960.83 524.43 965.77
  C 521.85 971.17 516.90 969.50 515.19 964.77
  Q 512.82 958.16 511.66 950.45
  C 511.32 948.25 509.17 947.64 507.28 947.70
  Q 499.57 947.96 492.84 945.07
  Q 490.80 944.20 490.48 941.73
  Q 489.81 936.53 494.35 934.82
  Q 499.18 932.99 505.15 933.17
  Q 511.20 933.34 512.55 927.25
  Q 513.84 921.45 515.03 915.95
  C 515.74 912.66 517.80 908.09 521.99 910.51
  C 525.95 912.80 527.88 925.41 528.34 929.76
  Z"
/>
</svg>
